<?xml version="1.0" encoding="UTF-8" standalone="no"?>
<svg
   id="svg8"
   version="1.1"
   viewBox="0 0 90 35"
   height="35mm"
   width="90mm"
   sodipodi:docname="qibo_logo_light.svg"
   inkscape:export-filename="/home/carrazza/repo/qiboteam/qibo/doc/source/logo.png"
   inkscape:export-xdpi="261.92001"
   inkscape:export-ydpi="261.92001"
   inkscape:version="1.2.2 (732a01da63, 2022-12-09, custom)"
   xmlns:inkscape="http://www.inkscape.org/namespaces/inkscape"
   xmlns:sodipodi="http://sodipodi.sourceforge.net/DTD/sodipodi-0.dtd"
   xmlns="http://www.w3.org/2000/svg"
   xmlns:svg="http://www.w3.org/2000/svg"
   xmlns:rdf="http://www.w3.org/1999/02/22-rdf-syntax-ns#"
   xmlns:cc="http://creativecommons.org/ns#"
   xmlns:dc="http://purl.org/dc/elements/1.1/">
  <sodipodi:namedview
     pagecolor="#ffffff"
     bordercolor="#666666"
     borderopacity="1"
     objecttolerance="10"
     gridtolerance="10"
     guidetolerance="10"
     inkscape:pageopacity="0"
     inkscape:pageshadow="2"
     inkscape:window-width="2497"
     inkscape:window-height="1376"
     id="namedview13"
     showgrid="false"
     inkscape:zoom="2.8284271"
     inkscape:cx="153.9725"
     inkscape:cy="71.594562"
     inkscape:window-x="63"
     inkscape:window-y="27"
     inkscape:window-maximized="1"
     inkscape:current-layer="flowRoot815"
     inkscape:showpageshadow="2"
     inkscape:pagecheckerboard="0"
     inkscape:deskcolor="#d1d1d1"
     inkscape:document-units="mm" />
  <defs
     id="defs2">
    <linearGradient
       id="linearGradient2367"
       inkscape:swatch="solid">
      <stop
         id="stop2365"
         offset="0"
         style="stop-color:#000000;stop-opacity:1;" />
    </linearGradient>
  </defs>
  <metadata
     id="metadata5">
    <rdf:RDF>
      <cc:Work
         rdf:about="">
        <dc:format>image/svg+xml</dc:format>
        <dc:type
           rdf:resource="http://purl.org/dc/dcmitype/StillImage" />
      </cc:Work>
    </rdf:RDF>
  </metadata>
  <g
     transform="translate(0,-262)"
     id="layer1">
    <g
       id="flowRoot815"
       style="font-style:normal;font-weight:normal;font-size:40px;line-height:1.25;font-family:sans-serif;letter-spacing:0px;word-spacing:0px;fill:#000000;fill-opacity:1;stroke:none"
       transform="matrix(0.90659938,0,0,0.90659938,-216.91173,-176.98871)"
       aria-label="QIBO">
      <path
         style="fill:#ffffff;fill-opacity:1;stroke:#ffffff;stroke-width:0;stroke-dasharray:none;stroke-opacity:1"
         d="m 308.44186,522.48902 c -11.12297,-0.1006 -22.91662,-0.20496 -26.20811,-0.23192 -5.11415,-0.0419 -6.09708,-0.0743 -6.75839,-0.22296 -1.65231,-0.37139 -3.27213,-1.06624 -4.99681,-2.14345 -0.45812,-0.28614 -0.87938,-0.5201 -0.93613,-0.51991 -0.0568,2.1e-4 -0.47432,0.22157 -0.92794,0.49196 -4.10006,2.44398 -9.51715,3.13647 -14.46957,1.84972 -3.78898,-0.98446 -7.45414,-3.21039 -9.88651,-6.00428 -4.44138,-5.10151 -5.79461,-11.88933 -3.65283,-18.32271 1.31216,-3.94138 4.03608,-7.41622 7.60147,-9.69699 2.3024,-1.47284 5.08537,-2.48437 7.98661,-2.90289 1.27434,-0.18384 4.1649,-0.21017 5.45808,-0.0497 6.02561,0.7476 11.05859,3.87282 14.03264,8.71355 1.04539,1.70153 1.9443,4.04651 2.37536,6.19654 0.28447,1.41886 0.39493,4.77822 0.20756,6.3125 -0.41076,3.36356 -1.71376,6.37954 -3.72506,8.62211 -0.295,0.32892 -0.51913,0.61382 -0.49809,0.63313 0.22248,0.20409 7.4225,2.22543 7.92701,2.22543 0.0743,0 0.10783,-3.35341 0.10783,-10.78247 v -10.78247 h 2.37272 2.37272 l 0.0262,11.32242 0.0262,11.32243 0.36114,0.0635 c 0.19862,0.0349 1.22012,0.21062 2.26999,0.39041 1.04987,0.17979 2.01333,0.35021 2.14102,0.37872 l 0.23216,0.0518 v -11.77477 -11.77477 l 4.41101,0.0506 c 3.49847,0.0401 4.58991,0.0854 5.27576,0.2191 2.73116,0.5323 4.64501,2.25928 5.33567,4.81469 0.21115,0.78129 0.24064,2.66411 0.0538,3.43616 -0.28774,1.18904 -0.97993,2.11239 -2.16206,2.88408 l -0.55101,0.35969 1.0259,0.52697 c 1.57277,0.80787 2.43951,1.78326 2.95652,3.32714 0.91135,2.7214 0.32774,5.68806 -1.51151,7.68341 -0.48861,0.53008 -1.07391,0.95757 -1.98798,1.45198 -0.48752,0.26369 -0.56427,0.33543 -0.36113,0.33756 0.14187,10e-4 0.97764,0.0706 1.85726,0.15354 3.45188,0.32558 10.74734,0.78482 14.70338,0.92556 l 1.54772,0.0551 -0.72227,-0.16015 c -5.25686,-1.1656 -9.17072,-4.90745 -10.42813,-9.96981 -0.3265,-1.31451 -0.44765,-3.61658 -0.26,-4.94036 0.55545,-3.91841 2.62402,-7.21586 5.86551,-9.35006 2.26025,-1.48815 4.71811,-2.19764 7.61319,-2.19764 2.8838,0 5.17666,0.69545 7.57836,2.29861 0.98384,0.65673 2.78882,2.47361 3.45675,3.47956 1.99467,3.00408 2.74074,6.68281 2.06593,10.18681 -0.90486,4.6986 -4.23807,8.54925 -8.67877,10.02603 -1.02357,0.3404 -2.30536,0.62381 -2.90066,0.64137 l -0.39128,0.0115 0.46432,0.0814 c 0.25537,0.0448 2.39123,0.13741 4.74634,0.2059 11.359,0.33032 5.97987,0.35342 -22.44198,0.0964 z m 18.55282,-5.19771 c 1.61549,-0.47543 2.77679,-1.19752 3.93119,-2.44439 1.69733,-1.83327 2.54333,-4.87296 2.08541,-7.49293 -0.29775,-1.70355 -0.77722,-2.8281 -1.75162,-4.1082 -1.03007,-1.35325 -2.57186,-2.41215 -4.29671,-2.951 -0.68783,-0.21489 -0.96884,-0.24122 -2.52794,-0.23685 -1.6409,0.005 -1.81069,0.0237 -2.63114,0.29587 -1.11611,0.37027 -1.85195,0.74206 -2.6376,1.33264 -1.72349,1.29557 -2.88849,3.19575 -3.30029,5.38292 -0.20864,1.10815 -0.15413,3.04635 0.11318,4.02409 0.9121,3.33627 3.48829,5.72444 6.90812,6.40395 1.11107,0.22076 2.97469,0.12725 4.1074,-0.2061 z m -25.61859,-0.2885 c 1.72416,-0.43796 2.49515,-1.34936 2.50532,-2.96158 0.008,-1.29619 -0.30062,-2.01219 -1.14585,-2.65687 -0.82704,-0.6308 -1.55192,-0.78322 -3.96697,-0.83413 l -2.14101,-0.0451 v 3.37683 3.37681 l 2.08942,-0.0556 c 1.26752,-0.0337 2.31352,-0.11254 2.65909,-0.20032 z m -32.04295,-6.07848 c 1.43497,-1.83396 2.10338,-3.70909 2.27525,-6.3829 0.24364,-3.79045 -1.17566,-7.57044 -3.77497,-10.0538 -2.20298,-2.10472 -4.95571,-3.25776 -8.1895,-3.43034 -5.93089,-0.31652 -11.15657,3.21234 -12.78646,8.6346 -0.3865,1.28581 -0.51384,2.16538 -0.52286,3.61136 l -0.008,1.28977 3.97249,0.0626 c 3.03395,0.0478 4.20407,0.1035 4.95271,0.23576 4.6071,0.81394 8.92112,2.87977 12.28063,5.88073 0.53801,0.48059 1.03359,0.87719 1.10128,0.88133 0.0677,0.004 0.38245,-0.32396 0.69946,-0.7291 z m 30.60271,-5.18796 c 0.93298,-0.16645 1.50252,-0.43856 1.92498,-0.91972 0.82225,-0.93649 0.65628,-2.89684 -0.30538,-3.60709 -0.7275,-0.53729 -1.13803,-0.62621 -3.0964,-0.67068 l -1.83147,-0.0416 v 2.69274 2.69275 l 1.26397,-0.004 c 0.69518,-0.002 1.61512,-0.0662 2.0443,-0.14282 z"
         id="path214" />
    </g>
  </g>
</svg>
