<svg xmlns="http://www.w3.org/2000/svg" viewBox="0 0 348.9 168"><defs><style>.cls-1{fill:#e6e6e6;}.cls-2{fill:#6400ff;}.cls-3,.cls-4{fill:#fff;}.cls-4{stroke:#e6e6e6;stroke-miterlimit:10;stroke-width:0.1px;}</style></defs><g id="Layer_2" data-name="Layer 2"><g id="Layer_5" data-name="Layer 5"><path class="cls-1" d="M343.14,142.69H341V100.12H307.66v-28a4.5,4.5,0,0,0-4.5-4.5c-.11,0-.22,0-.33,0s-.22,0-.33,0H149.69V52H222.5a4.5,4.5,0,0,0,0-9H149.62A26.42,26.42,0,0,0,125,18.55v-14a4.53,4.53,0,1,0-9,0v14H100.43V4.5a4.5,4.5,0,0,0-9,0v14H75.9V4.5a4.5,4.5,0,0,0-9,0v14H51.37V4.5a4.5,4.5,0,0,0-9,0V18.55A26.41,26.41,0,0,0,17.71,43H4.5a4.5,4.5,0,0,0,0,9H17.64v15.6H4.5a4.5,4.5,0,0,0,0,9H17.64v15.6H4.5a4.5,4.5,0,0,0,0,9H17.64v15.6H4.5a4.5,4.5,0,0,0,0,9H17.7a26.42,26.42,0,0,0,24.67,24.67v13a4.5,4.5,0,0,0,9,0v-13H66.9v13a4.5,4.5,0,0,0,9,0v-13H91.43v13a4.5,4.5,0,0,0,9,0v-13h15.51v12.93a4.53,4.53,0,1,0,9,0v-13l.78-.07H343.14a3.87,3.87,0,0,0,0-7.73ZM149.63,125.82H163.5a4.5,4.5,0,0,0,0-9H149.69v-15.6H183.5a4.5,4.5,0,0,0,0-9H149.69V76.62h149v30.66a4.49,4.49,0,0,0,8.32,2.36v33.05H262V100.12H228v42.57H142.06A26.23,26.23,0,0,0,149.63,125.82Z"/><path class="cls-2" d="M140.48,136.59,120.66,118a33.82,33.82,0,0,0,5.51-18.53V68.55a34.09,34.09,0,0,0-34-34H73.21a34.08,34.08,0,0,0-34,34.05v30.9a34.08,34.08,0,0,0,34,34.05H92.12A33.84,33.84,0,0,0,109,129l20.5,19.26a8,8,0,0,0,11-11.66ZM73.21,117.5a18.07,18.07,0,0,1-18-18V68.55a18.07,18.07,0,0,1,18-18H92.12a18.07,18.07,0,0,1,18,18v30.9a17.81,17.81,0,0,1-1.53,7.23l-1.16-1.09A8,8,0,0,0,96.28,117a18.43,18.43,0,0,1-4.16.5Z"/><path class="cls-2" d="M182.85,150.42a6.5,6.5,0,0,1-6.5-6.5V98.72a6.5,6.5,0,0,1,13,0v45.2A6.5,6.5,0,0,1,182.85,150.42Z"/><path class="cls-3" d="M182.85,104.42a5,5,0,1,1,5-5A5,5,0,0,1,182.85,104.42Zm0-8a3,3,0,1,0,3,3A3,3,0,0,0,182.85,96.42Z"/><path class="cls-3" d="M182.85,148.48a5,5,0,1,1,5-5A5,5,0,0,1,182.85,148.48Zm0-8a3,3,0,1,0,3,3A3,3,0,0,0,182.85,140.48Z"/><path class="cls-2" d="M262.61,92.2l-.37,0h-33V49.38a6.46,6.46,0,1,0-12.91,0V144a6.46,6.46,0,0,0,6.46,6.46,5.34,5.34,0,0,1,1.13,0h38.2l.4,0h0a6.5,6.5,0,0,0,6.5-6.5V98.7A6.5,6.5,0,0,0,262.61,92.2Zm-6.5,13v32.2H229.29v-32.2Z"/><path class="cls-3" d="M222.88,104.42a5,5,0,1,1,5-5A5,5,0,0,1,222.88,104.42Zm0-8a3,3,0,1,0,3,3A3,3,0,0,0,222.88,96.42Z"/><path class="cls-3" d="M222.88,148.48a5,5,0,1,1,5-5A5,5,0,0,1,222.88,148.48Zm0-8a3,3,0,1,0,3,3A3,3,0,0,0,222.88,140.48Z"/><path class="cls-3" d="M222.88,54.82a5,5,0,1,1,5-5A5,5,0,0,1,222.88,54.82Zm0-8a3,3,0,1,0,3,3A3,3,0,0,0,222.88,46.82Z"/><path class="cls-3" d="M262.61,148.48a5,5,0,1,1,5-5A5,5,0,0,1,262.61,148.48Zm0-8a3,3,0,1,0,3,3A3,3,0,0,0,262.61,140.48Z"/><path class="cls-3" d="M262.61,104.42a5,5,0,1,1,5-5A5,5,0,0,1,262.61,104.42Zm0-8a3,3,0,1,0,3,3A3,3,0,0,0,262.61,96.42Z"/><path class="cls-2" d="M342.4,92.22H302.63a6.42,6.42,0,0,0-6.43,6.42V144a6.43,6.43,0,0,0,6.43,6.43,5.12,5.12,0,0,0,.56,0,5.44,5.44,0,0,0,.57,0H342.4a6.5,6.5,0,0,0,6.5-6.5V98.72A6.5,6.5,0,0,0,342.4,92.22Zm-33.35,13H335.9v32.2H309.05Z"/><path class="cls-3" d="M302.74,104.42a5,5,0,1,1,5-5A5,5,0,0,1,302.74,104.42Zm0-8a3,3,0,1,0,3,3A3,3,0,0,0,302.74,96.42Z"/><path class="cls-3" d="M302.74,148.48a5,5,0,1,1,5-5A5,5,0,0,1,302.74,148.48Zm0-8a3,3,0,1,0,3,3A3,3,0,0,0,302.74,140.48Z"/><path class="cls-3" d="M342.4,104.42a5,5,0,1,1,5-5A5,5,0,0,1,342.4,104.42Zm0-8a3,3,0,1,0,3,3A3,3,0,0,0,342.4,96.42Z"/><path class="cls-3" d="M342.4,148.48a5,5,0,1,1,5-5A5,5,0,0,1,342.4,148.48Zm0-8a3,3,0,1,0,3,3A3,3,0,0,0,342.4,140.48Z"/><path class="cls-4" d="M302.74,77.37a5,5,0,1,1,5-5A5,5,0,0,1,302.74,77.37Zm0-8a3,3,0,1,0,3,3A3,3,0,0,0,302.74,69.37Z"/><circle class="cls-3" cx="35" cy="36.42" r="4"/><circle class="cls-3" cx="131" cy="36.42" r="4"/><circle class="cls-3" cx="35" cy="132.42" r="4"/></g></g></svg>